<?xml version="1.0" encoding="UTF-8"?>
<svg id="Layer_1" xmlns="http://www.w3.org/2000/svg" version="1.1" viewBox="0 0 180 60">
  <!-- Generator: Adobe Illustrator 30.1.0, SVG Export Plug-In . SVG Version: 2.1.1 Build 136)  -->
  <defs>
    <style>
      .st0 {
        fill: #c96e00;
      }

      .st1 {
        fill: #606060;
      }

      .st2 {
        fill: #006a7c;
      }
    </style>
  </defs>
  <g>
    <path class="st2" d="M150.45,40.12c-.29,0-.53-.24-.53-.53v-20.72c0-2.3-1.87-4.17-4.17-4.17s-4.17,1.87-4.17,4.17v16.91c0,.29-.24.53-.53.53s-.53-.24-.53-.53v-16.91c0-2.89,2.35-5.23,5.23-5.23,2.89,0,5.23,2.35,5.23,5.23v20.72c0,.29-.24.53-.53.53Z"/>
    <path class="st2" d="M150.45,40.12c-.29,0-.53-.24-.53-.53v-20.72c0-2.89,2.35-5.23,5.23-5.23s5.23,2.35,5.23,5.23v16.91c0,.29-.24.53-.53.53s-.53-.24-.53-.53v-16.91c0-2.3-1.87-4.17-4.17-4.17s-4.17,1.87-4.17,4.17v20.72c0,.29-.24.53-.53.53Z"/>
    <path class="st2" d="M141.04,42.46c-.29,0-.53-.24-.53-.53v-16.91c0-.29.24-.53.53-.53s.53.24.53.53v16.91c0,.29-.24.53-.53.53Z"/>
    <path class="st2" d="M150.45,46.26c-.29,0-.53-.24-.53-.53v-20.72c0-.29.24-.53.53-.53s.53.24.53.53v20.72c0,.29-.24.53-.53.53Z"/>
    <path class="st2" d="M167.41,28.8c-.29,0-.53-.24-.53-.53v-8.93c0-8.69-6.8-15.79-15.47-16.16h-1.95c-8.65.37-15.45,7.47-15.45,16.16v8.93c0,.29-.24.53-.53.53s-.53-.24-.53-.53v-8.93c0-9.26,7.24-16.82,16.49-17.22h2c9.27.4,16.51,7.96,16.51,17.22v8.93c0,.29-.24.53-.53.53Z"/>
    <path class="st2" d="M149.46,57.79c-9.27-.4-16.51-7.96-16.51-17.22v-8.94c0-.29.24-.53.53-.53s.53.24.53.53v8.94c0,8.69,6.8,15.79,15.47,16.16h1.95c8.65-.37,15.45-7.47,15.45-16.16v-8.94c0-.29.24-.53.53-.53s.53.24.53.53v8.94c0,9.26-7.24,16.82-16.49,17.22h-2Z"/>
    <path class="st2" d="M152.51,51.98c0,1.2-.97,2.17-2.17,2.17s-2.17-.97-2.17-2.17c0-1.83,2.17-3.97,2.17-3.97,0,0,2.17,2.14,2.17,3.97Z"/>
    <path class="st0" d="M148.82,51.81c0,.23.06.47.19.68.12.19.29.34.54.43h.03c.13.06.19.17.13.27s-.22.14-.35.1c-.02,0-.04-.02-.06-.03l-.05-.03s-.06-.04-.09-.07c-.35-.26-.47-.63-.44-.99,0-.09.02-.18.05-.28,0-.03.02-.06.03-.09h.01s0,0,0,0Z"/>
    <path class="st2" d="M150.54,53.4c-.02.16-.17.27-.33.24-.16-.02-.32-.18-.3-.33s.22-.26.38-.24c.16.02.27.17.24.33Z"/>
  </g>
  <g>
    <path class="st2" d="M37.97,28.16s1.91,2.17.53,2.17h-5.14c-1.55,0-2.93-.56-4.05-1.05-1.12.49-2.47,1.05-4.05,1.05h-5.7c-3.43,0-7.38-2.5-7.38-7.74,0-4.25,3.03-6.82,5.04-7.64l.99,1.48c-1.52.99-3.56,2.96-3.56,6.13,0,2.93,1.91,5.6,4.91,5.6h5.5c.79,0,1.52-.07,2.17-.26-2.14-1.48-4.08-3.66-4.08-6.16,0-4.08,2.93-6.36,6.16-6.36s6.19,2.27,6.19,6.36c0,2.5-1.94,4.68-4.08,6.16.66.2,1.38.26,2.17.26h3.95s.43,0,.43,0ZM33.16,21.51c0-2.96-1.88-4.38-3.85-4.38s-3.82,1.42-3.82,4.38c0,2.73,1.88,4.25,3.82,5.34,1.98-1.09,3.85-2.6,3.85-5.34ZM29.24,11.92c-.86,0-1.45-.69-1.45-1.55s.63-1.52,1.48-1.52,1.48.66,1.48,1.52-.59,1.55-1.48,1.55h-.03Z"/>
    <path class="st2" d="M37.64,36.63c-.82,0-1.45-.69-1.45-1.55s.66-1.52,1.48-1.52,1.45.66,1.45,1.52-.56,1.55-1.45,1.55h-.03ZM47.06,28.16s1.91,2.17.53,2.17c-2.34,0-3.85-1.15-4.91-2.93-.66,1.71-2.14,2.93-4.12,2.93l-.99-2.17c2.01,0,3.03-1.68,3.03-3.99v-7.87s2.67-.92,2.67-.92v9.06c-.03,1.88,1.35,3.69,3.39,3.72h.4ZM41.72,36.63c-.82,0-1.45-.69-1.45-1.55s.63-1.52,1.52-1.52,1.45.66,1.45,1.52-.56,1.55-1.48,1.55h-.03Z"/>
    <path class="st2" d="M46.67,28.16h10.11s-1.81-4.74-2.54-6.42c-.99-2.24-2.54-3.43-4.61-3.43-.63,0-1.22.03-1.88.26l7.02-8.63h3.26s-6.13,6.85-6.13,6.85c2.27.1,3.72,1.91,4.68,4.22.4.99,3.33,8.14,3.99,9.32h-12.98s-.92-2.17-.92-2.17Z"/>
    <path class="st2" d="M77.99,28.16s1.91,2.17.53,2.17c-2.01,0-3.39-.86-4.35-2.08v1.02c0,4.74-1.84,7.31-6.26,7.44l-.33-2.11c2.5-.23,4.12-.86,3.95-6.32v-8.96s2.64-.96,2.64-.96v6.46c0,1.61,1.52,3.29,3.39,3.33h.43Z"/>
    <path class="st2" d="M78.49,30.34l-.92-2.17h3.76c-.16-.66-.3-1.71-.3-2.77,0-6.69,4.68-9.03,8.63-9.26v-1.84s2.54-.96,2.54-.96v2.8c4.25.16,8.6,2.73,8.6,9.16,0,1.05-.13,2.47-.76,5.04h-21.54ZM84.15,28.16h5.5s0-10.18,0-10.18c-2.67.16-6,2.01-6,7.35,0,1.09.23,2.17.49,2.83ZM92.19,28.16h5.47c.23-.82.53-1.75.53-2.87,0-5.27-3.1-7.12-6-7.31v10.18Z"/>
    <path class="st2" d="M110.04,28.16s1.91,2.17.53,2.17h-2.14c-1.94,0-5.01-1.28-5.01-6.36v-14.16s2.67-.96,2.67-.96v14.79c0,2.83.82,4.51,2.96,4.51h.59s.4,0,.4,0Z"/>
    <path class="st2" d="M109.65,28.16h3.95c-1.15-1.48-1.75-3.49-1.75-5.47,0-3.82,2.14-7.61,6.62-7.68,3.89,0,6.42,3.03,6.42,7.54,0,4.74-2.9,7.77-6.59,7.77h-7.74s-.92-2.17-.92-2.17ZM118.38,28.36c2.67,0,3.85-2.96,3.85-5.73,0-2.77-1.22-5.6-3.82-5.6-2.57,0-3.95,2.8-3.95,5.76,0,2.83,1.32,5.57,3.89,5.57h.03Z"/>
  </g>
  <g>
    <path class="st0" d="M25.35,42.82v8.09h-.67v-6.89s-3.21,4.29-3.21,4.29l-3.21-4.3v6.9h-.67v-8.09h.46s3.42,4.55,3.42,4.55l3.42-4.55h.46Z"/>
    <path class="st0" d="M34.86,42.82l3.24,8.09h-.68s-.67-1.67-.67-1.67h-4.45s-.67,1.67-.67,1.67h-.68s3.24-8.09,3.24-8.09h.69ZM32.53,48.61h3.96s-1.98-4.97-1.98-4.97l-1.98,4.97Z"/>
    <path class="st0" d="M49.7,42.82v8.09h-.68v-4.1s-4.71,0-4.71,0v4.1h-.67v-8.09h.67v3.35s4.71,0,4.71,0v-3.35h.68Z"/>
    <path class="st0" d="M60.87,42.82v.64h-4.52s0,2.71,0,2.71h3.49v.63h-3.49s0,3.47,0,3.47h4.52v.63h-5.18v-8.09h5.18Z"/>
    <path class="st0" d="M71.64,50.91l-2.17-3.73h-2.39s0,3.73,0,3.73h-.67v-8.09h3.34c1.18,0,2.19.93,2.19,2.18,0,1.03-.69,1.88-1.75,2.13l2.2,3.78h-.76ZM67.08,46.56h2.63c.81,0,1.58-.64,1.58-1.55,0-.82-.7-1.54-1.59-1.54h-2.62s0,3.09,0,3.09Z"/>
    <path class="st0" d="M90.75,42.82l-2.44,2.53,3.24,5.56h-.74s-2.96-5.08-2.96-5.08l-1.58,1.64v3.44h-.67v-8.09h.67v3.76s3.64-3.76,3.64-3.76h.85Z"/>
    <path class="st0" d="M100.7,42.82l3.24,8.09h-.68s-.67-1.67-.67-1.67h-4.45s-.67,1.67-.67,1.67h-.68s3.24-8.09,3.24-8.09h.69ZM98.38,48.61h3.96s-1.98-4.97-1.98-4.97l-1.98,4.97Z"/>
    <path class="st0" d="M109.52,42.82h.67v8.09h-.67v-8.09Z"/>
    <path class="st0" d="M121.47,42.82v.64h-4.51s0,2.71,0,2.71h3.49v.63h-3.49s0,4.11,0,4.11h-.67v-8.09h5.18Z"/>
  </g>
  <rect class="st1" x="-345.89" y="-206.78" width="84" height="118.22"/>
</svg>